<svg xmlns="http://www.w3.org/2000/svg" width="800" height="520" viewBox="0 0 800 520">
<rect width="100%" height="100%" fill="#ffffff"/>
<text x="400.0" y="38" text-anchor="middle" font-family="Arial" font-size="15" font-weight="700">Tempo medio de resposta (ms) — 10 usuario(s) virtual(is)</text>
<line x1="90" y1="410" x2="758" y2="410" stroke="#111827" stroke-width="1.5"/>
<line x1="90" y1="410" x2="90" y2="62" stroke="#111827" stroke-width="1.5"/>
<text transform="translate(18 240) rotate(-90)" text-anchor="middle" font-family="Arial" font-size="13">Tempo medio de resposta (ms)</text>
<line x1="90" y1="342.0" x2="750" y2="342.0" stroke="#e5e7eb" stroke-dasharray="4,3"/>
<text x="82" y="346.0" text-anchor="end" font-family="Arial" font-size="11">50.0</text>
<line x1="90" y1="274.0" x2="750" y2="274.0" stroke="#e5e7eb" stroke-dasharray="4,3"/>
<text x="82" y="278.0" text-anchor="end" font-family="Arial" font-size="11">100.0</text>
<line x1="90" y1="206.0" x2="750" y2="206.0" stroke="#e5e7eb" stroke-dasharray="4,3"/>
<text x="82" y="210.0" text-anchor="end" font-family="Arial" font-size="11">150.0</text>
<line x1="90" y1="138.0" x2="750" y2="138.0" stroke="#e5e7eb" stroke-dasharray="4,3"/>
<text x="82" y="142.0" text-anchor="end" font-family="Arial" font-size="11">200.0</text>
<line x1="90" y1="70.0" x2="750" y2="70.0" stroke="#e5e7eb" stroke-dasharray="4,3"/>
<text x="82" y="74.0" text-anchor="end" font-family="Arial" font-size="11">250.0</text>
<rect x="118.0" y="355.9" width="130.0" height="54.1" fill="#2563eb" rx="3" stroke="#00000033" stroke-width="1"/>
<text x="183.0" y="349.9" text-anchor="middle" font-family="Arial" font-size="11" font-weight="700" fill="#111827">39.8</text>
<text x="183.0" y="432" text-anchor="middle" font-family="Arial" font-size="12">Python</text>
<text x="183.0" y="447" text-anchor="middle" font-family="Arial" font-size="12">(com cache)</text>
<rect x="276.0" y="126.0" width="130.0" height="284.0" fill="#93c5fd" rx="3" stroke="#00000033" stroke-width="1"/>
<text x="341.0" y="120.0" text-anchor="middle" font-family="Arial" font-size="11" font-weight="700" fill="#111827">208.8</text>
<text x="341.0" y="432" text-anchor="middle" font-family="Arial" font-size="12">Python</text>
<text x="341.0" y="447" text-anchor="middle" font-family="Arial" font-size="12">(sem cache)</text>
<rect x="434.0" y="360.7" width="130.0" height="49.3" fill="#dc2626" rx="3" stroke="#00000033" stroke-width="1"/>
<text x="499.0" y="354.7" text-anchor="middle" font-family="Arial" font-size="11" font-weight="700" fill="#111827">36.2</text>
<text x="499.0" y="432" text-anchor="middle" font-family="Arial" font-size="12">Ruby</text>
<text x="499.0" y="447" text-anchor="middle" font-family="Arial" font-size="12">(com cache)</text>
<rect x="592.0" y="377.5" width="130.0" height="32.5" fill="#fca5a5" rx="3" stroke="#00000033" stroke-width="1"/>
<text x="657.0" y="371.5" text-anchor="middle" font-family="Arial" font-size="11" font-weight="700" fill="#111827">23.9</text>
<text x="657.0" y="432" text-anchor="middle" font-family="Arial" font-size="12">Ruby</text>
<text x="657.0" y="447" text-anchor="middle" font-family="Arial" font-size="12">(sem cache)</text>
</svg>