<svg xmlns="http://www.w3.org/2000/svg" width="800" height="520" viewBox="0 0 800 520">
<rect width="100%" height="100%" fill="#ffffff"/>
<text x="400.0" y="38" text-anchor="middle" font-family="Arial" font-size="15" font-weight="700">Throughput (req/s) — 10 usuario(s) virtual(is)</text>
<line x1="90" y1="410" x2="758" y2="410" stroke="#111827" stroke-width="1.5"/>
<line x1="90" y1="410" x2="90" y2="62" stroke="#111827" stroke-width="1.5"/>
<text transform="translate(18 240) rotate(-90)" text-anchor="middle" font-family="Arial" font-size="13">Throughput (req/s)</text>
<line x1="90" y1="342.0" x2="750" y2="342.0" stroke="#e5e7eb" stroke-dasharray="4,3"/>
<text x="82" y="346.0" text-anchor="end" font-family="Arial" font-size="11">100.0</text>
<line x1="90" y1="274.0" x2="750" y2="274.0" stroke="#e5e7eb" stroke-dasharray="4,3"/>
<text x="82" y="278.0" text-anchor="end" font-family="Arial" font-size="11">200.0</text>
<line x1="90" y1="206.0" x2="750" y2="206.0" stroke="#e5e7eb" stroke-dasharray="4,3"/>
<text x="82" y="210.0" text-anchor="end" font-family="Arial" font-size="11">300.0</text>
<line x1="90" y1="138.0" x2="750" y2="138.0" stroke="#e5e7eb" stroke-dasharray="4,3"/>
<text x="82" y="142.0" text-anchor="end" font-family="Arial" font-size="11">400.0</text>
<line x1="90" y1="70.0" x2="750" y2="70.0" stroke="#e5e7eb" stroke-dasharray="4,3"/>
<text x="82" y="74.0" text-anchor="end" font-family="Arial" font-size="11">500.0</text>
<rect x="118.0" y="240.3" width="130.0" height="169.7" fill="#2563eb" rx="3" stroke="#00000033" stroke-width="1"/>
<text x="183.0" y="234.3" text-anchor="middle" font-family="Arial" font-size="11" font-weight="700" fill="#111827">249.6</text>
<text x="183.0" y="432" text-anchor="middle" font-family="Arial" font-size="12">Python</text>
<text x="183.0" y="447" text-anchor="middle" font-family="Arial" font-size="12">(com cache)</text>
<rect x="276.0" y="377.5" width="130.0" height="32.5" fill="#93c5fd" rx="3" stroke="#00000033" stroke-width="1"/>
<text x="341.0" y="371.5" text-anchor="middle" font-family="Arial" font-size="11" font-weight="700" fill="#111827">47.8</text>
<text x="341.0" y="432" text-anchor="middle" font-family="Arial" font-size="12">Python</text>
<text x="341.0" y="447" text-anchor="middle" font-family="Arial" font-size="12">(sem cache)</text>
<rect x="434.0" y="226.0" width="130.0" height="184.0" fill="#dc2626" rx="3" stroke="#00000033" stroke-width="1"/>
<text x="499.0" y="220.0" text-anchor="middle" font-family="Arial" font-size="11" font-weight="700" fill="#111827">270.6</text>
<text x="499.0" y="432" text-anchor="middle" font-family="Arial" font-size="12">Ruby</text>
<text x="499.0" y="447" text-anchor="middle" font-family="Arial" font-size="12">(com cache)</text>
<rect x="592.0" y="129.6" width="130.0" height="280.4" fill="#fca5a5" rx="3" stroke="#00000033" stroke-width="1"/>
<text x="657.0" y="123.6" text-anchor="middle" font-family="Arial" font-size="11" font-weight="700" fill="#111827">412.3</text>
<text x="657.0" y="432" text-anchor="middle" font-family="Arial" font-size="12">Ruby</text>
<text x="657.0" y="447" text-anchor="middle" font-family="Arial" font-size="12">(sem cache)</text>
</svg>