<svg xmlns="http://www.w3.org/2000/svg" width="860" height="520" viewBox="0 0 860 520">
<rect width="100%" height="100%" fill="#ffffff"/>
<text x="365.0" y="38" text-anchor="middle" font-family="Arial" font-size="16" font-weight="700">Comparacao de Cenarios — P95 (ms)</text>
<line x1="80" y1="450" x2="658" y2="450" stroke="#111827" stroke-width="1.5"/>
<line x1="80" y1="60" x2="80" y2="450" stroke="#111827" stroke-width="1.5"/>
<text x="365.0" y="505" text-anchor="middle" font-family="Arial" font-size="13">Usuarios Virtuais</text>
<text transform="translate(18 255) rotate(-90)" text-anchor="middle" font-family="Arial" font-size="13">P95 (ms)</text>
<line x1="80" y1="450.0" x2="650" y2="450.0" stroke="#e5e7eb" stroke-dasharray="4,3"/>
<text x="72" y="454.0" text-anchor="end" font-family="Arial" font-size="11">0</text>
<line x1="80" y1="372.0" x2="650" y2="372.0" stroke="#e5e7eb" stroke-dasharray="4,3"/>
<text x="72" y="376.0" text-anchor="end" font-family="Arial" font-size="11">100</text>
<line x1="80" y1="294.0" x2="650" y2="294.0" stroke="#e5e7eb" stroke-dasharray="4,3"/>
<text x="72" y="298.0" text-anchor="end" font-family="Arial" font-size="11">200</text>
<line x1="80" y1="216.0" x2="650" y2="216.0" stroke="#e5e7eb" stroke-dasharray="4,3"/>
<text x="72" y="220.0" text-anchor="end" font-family="Arial" font-size="11">300</text>
<line x1="80" y1="138.0" x2="650" y2="138.0" stroke="#e5e7eb" stroke-dasharray="4,3"/>
<text x="72" y="142.0" text-anchor="end" font-family="Arial" font-size="11">400</text>
<line x1="80" y1="60.0" x2="650" y2="60.0" stroke="#e5e7eb" stroke-dasharray="4,3"/>
<text x="72" y="64.0" text-anchor="end" font-family="Arial" font-size="11">500</text>
<line x1="80.0" y1="450" x2="80.0" y2="456" stroke="#111827"/>
<text x="80.0" y="472" text-anchor="middle" font-family="Arial" font-size="13">1 VU(s)</text>
<line x1="365.0" y1="450" x2="365.0" y2="456" stroke="#111827"/>
<text x="365.0" y="472" text-anchor="middle" font-family="Arial" font-size="13">5 VU(s)</text>
<line x1="650.0" y1="450" x2="650.0" y2="456" stroke="#111827"/>
<text x="650.0" y="472" text-anchor="middle" font-family="Arial" font-size="13">10 VU(s)</text>
<polyline fill="none" stroke="#2563eb" stroke-width="2.5" points="80.0,442.2 365.0,422.7 650.0,396.2"/>
<circle cx="80.0" cy="442.2" r="5" fill="#2563eb" stroke="#fff" stroke-width="1.5"/>
<circle cx="365.0" cy="422.7" r="5" fill="#2563eb" stroke="#fff" stroke-width="1.5"/>
<circle cx="650.0" cy="396.2" r="5" fill="#2563eb" stroke="#fff" stroke-width="1.5"/>
<rect x="670" y="60" width="14" height="14" fill="#2563eb" rx="2"/>
<text x="690" y="71" font-family="Arial" font-size="13">Python (com cache)</text>
<polyline fill="none" stroke="#93c5fd" stroke-width="2.5" points="80.0,255.0 365.0,262.8 650.0,231.6"/>
<circle cx="80.0" cy="255.0" r="5" fill="#93c5fd" stroke="#fff" stroke-width="1.5"/>
<circle cx="365.0" cy="262.8" r="5" fill="#93c5fd" stroke="#fff" stroke-width="1.5"/>
<circle cx="650.0" cy="231.6" r="5" fill="#93c5fd" stroke="#fff" stroke-width="1.5"/>
<rect x="670" y="92" width="14" height="14" fill="#93c5fd" rx="2"/>
<text x="690" y="103" font-family="Arial" font-size="13">Python (sem cache)</text>
<polyline fill="none" stroke="#dc2626" stroke-width="2.5" points="80.0,443.8 365.0,421.1 650.0,393.8"/>
<circle cx="80.0" cy="443.8" r="5" fill="#dc2626" stroke="#fff" stroke-width="1.5"/>
<circle cx="365.0" cy="421.1" r="5" fill="#dc2626" stroke="#fff" stroke-width="1.5"/>
<circle cx="650.0" cy="393.8" r="5" fill="#dc2626" stroke="#fff" stroke-width="1.5"/>
<rect x="670" y="124" width="14" height="14" fill="#dc2626" rx="2"/>
<text x="690" y="135" font-family="Arial" font-size="13">Ruby (com cache)</text>
<polyline fill="none" stroke="#fca5a5" stroke-width="2.5" points="80.0,443.0 365.0,432.1 650.0,418.8"/>
<circle cx="80.0" cy="443.0" r="5" fill="#fca5a5" stroke="#fff" stroke-width="1.5"/>
<circle cx="365.0" cy="432.1" r="5" fill="#fca5a5" stroke="#fff" stroke-width="1.5"/>
<circle cx="650.0" cy="418.8" r="5" fill="#fca5a5" stroke="#fff" stroke-width="1.5"/>
<rect x="670" y="156" width="14" height="14" fill="#fca5a5" rx="2"/>
<text x="690" y="167" font-family="Arial" font-size="13">Ruby (sem cache)</text>
</svg>